HIERARCHY
ROOT Hips
{
	OFFSET 0.000000 0.000000 0.000000
	CHANNELS 6 Xposition Yposition Zposition Yrotation Xrotation Zrotation
	JOINT Chest
	{
		OFFSET 0.000000 -0.009281 11.569106
		CHANNELS 3 Yrotation Xrotation Zrotation
		JOINT Chest2
		{
			OFFSET -0.000000 0.016865 9.269641
			CHANNELS 3 Yrotation Xrotation Zrotation
			JOINT Chest3
			{
				OFFSET -0.000000 0.000001 8.374491
				CHANNELS 3 Yrotation Xrotation Zrotation
				JOINT Chest4
				{
					OFFSET -0.000000 0.000001 8.374493
					CHANNELS 3 Yrotation Xrotation Zrotation
					JOINT Neck
					{
						OFFSET -0.000000 0.000002 12.152554
						CHANNELS 3 Yrotation Xrotation Zrotation
						JOINT Head
						{
							OFFSET -0.000000 0.040101 7.802319
							CHANNELS 3 Yrotation Xrotation Zrotation
							End Site
							{
								OFFSET -0.000000 0.020947 14.853096
							}
						}
					}
					JOINT RightCollar
					{
						OFFSET 2.894404 0.000001 6.791374
						CHANNELS 3 Yrotation Xrotation Zrotation
						JOINT RightShoulder
						{
							OFFSET 13.574684 0.000001 0.000000
							CHANNELS 3 Yrotation Xrotation Zrotation
							JOINT RightElbow
							{
								OFFSET 23.923903 0.000002 0.000000
								CHANNELS 3 Yrotation Xrotation Zrotation
								JOINT RightWrist
								{
									OFFSET 19.846718 0.012767 0.000000
									CHANNELS 3 Yrotation Xrotation Zrotation
									End Site
									{
										OFFSET 14.973145 0.000001 0.000000
									}
								}
							}
						}
					}
					JOINT LeftCollar
					{
						OFFSET -2.894404 0.000001 6.791374
						CHANNELS 3 Yrotation Xrotation Zrotation
						JOINT LeftShoulder
						{
							OFFSET -13.574684 -0.000001 0.000000
							CHANNELS 3 Yrotation Xrotation Zrotation
							JOINT LeftElbow
							{
								OFFSET -23.923903 -0.000002 0.000000
								CHANNELS 3 Yrotation Xrotation Zrotation
								JOINT LeftWrist
								{
									OFFSET -19.846718 0.012763 0.000000
									CHANNELS 3 Yrotation Xrotation Zrotation
									End Site
									{
										OFFSET -14.973145 -0.000001 0.000000
									}
								}
							}
						}
					}
				}
			}
		}
	}
	JOINT RightHip
	{
		OFFSET 9.469263 0.004643 0.045487
		CHANNELS 3 Yrotation Xrotation Zrotation
		JOINT RightKnee
		{
			OFFSET 0.000000 0.002661 -40.478676
			CHANNELS 3 Yrotation Xrotation Zrotation
			JOINT RightAnkle
			{
				OFFSET 0.000000 0.049106 -35.224068
				CHANNELS 3 Yrotation Xrotation Zrotation
				JOINT RightToe
				{
					OFFSET -0.000001 12.539529 -6.151390
					CHANNELS 3 Yrotation Xrotation Zrotation
					End Site
					{
						OFFSET -0.000001 5.044994 -1.291870
					}
				}
			}
		}
	}
	JOINT LeftHip
	{
		OFFSET -9.469263 0.004641 0.045487
		CHANNELS 3 Yrotation Xrotation Zrotation
		JOINT LeftKnee
		{
			OFFSET 0.000000 0.002661 -40.478676
			CHANNELS 3 Yrotation Xrotation Zrotation
			JOINT LeftAnkle
			{
				OFFSET 0.000000 0.049106 -35.224068
				CHANNELS 3 Yrotation Xrotation Zrotation
				JOINT LeftToe
				{
					OFFSET -0.000001 12.539529 -6.151390
					CHANNELS 3 Yrotation Xrotation Zrotation
					End Site
					{
						OFFSET -0.000001 5.044994 -1.291870
					}
				}
			}
		}
	}
}
MOTION
Frames: 9
Frame Time: 0.016667
100.560280 55.563755 80.198624 3.305173 4.661175 -11.316699 0.958665 -0.776407 -2.043504 0.502492 -0.247333 -0.881797 0.502492 -0.247332 -0.881796 0.376512 -0.186226 -0.661143 0.069861 -19.522549 -6.233551 -1.809700 -0.287646 -11.366693 8.949658 -2.643044 -0.350529 77.986997 0.234808 14.006062 17.169769 -11.188850 26.709248 -38.783242 37.289715 51.733461 -10.785790 0.856311 4.600545 -69.158910 21.174191 11.871796 9.885227 17.854596 8.791335 15.150271 7.536343 -17.594342 -4.231696 25.039429 12.764114 -2.592375 -56.062077 -1.076654 11.645603 -6.792326 1.367176 2.545020 21.639977 1.760375 -19.881070 -2.760154 -3.982600 -3.311347 -6.857437 8.112227 9.443512 1.639896 2.730200 0.074061 0.405655 -0.105747 
100.581940 56.502991 80.207626 3.302244 4.469056 -10.123344 0.843160 -0.587233 -2.359618 0.458299 -0.138864 -0.996547 0.458298 -0.138864 -0.996547 0.343498 -0.104897 -0.747305 0.152815 -19.873325 -6.064288 -1.578058 -0.918159 -11.014728 8.950069 -2.787375 -0.353674 77.867155 1.070743 11.663783 17.414032 -7.642716 23.435434 -37.509801 37.838859 51.274418 -11.299813 0.241547 3.458949 -69.708904 20.729337 9.552415 9.110542 17.729516 8.050981 15.314338 7.407510 -18.398808 -2.663584 26.378150 15.418653 -2.023904 -52.842288 -0.446313 9.823181 -6.196010 -0.331380 3.082561 20.566828 1.582433 -19.849995 -3.616911 -4.371030 -3.190302 -6.734891 8.170954 9.021346 2.171824 1.791552 0.397802 0.407670 0.015727 
100.665291 57.407974 80.216995 3.088880 4.072523 -8.924020 0.910134 -0.200071 -2.556183 0.445781 -0.044256 -1.120684 0.445781 -0.044256 -1.120683 0.334256 -0.034009 -0.840481 0.254916 -20.179507 -5.961979 -1.337207 -1.469706 -10.783060 8.961861 -2.862332 -0.379820 77.511514 1.775659 9.336710 16.994402 -3.878304 20.045746 -36.364487 37.994129 49.612879 -11.717017 -0.440001 2.653022 -70.505051 20.003705 6.934408 8.225786 17.671658 7.152274 15.173784 7.108256 -19.180879 -0.940701 27.391065 18.021179 -1.557517 -48.996642 0.843212 8.532184 -5.490066 -1.907074 3.104283 18.131623 1.107515 -19.524787 -4.281025 -5.003037 -3.122171 -6.668289 8.188608 8.663618 2.840484 1.196701 0.601460 0.274981 0.029774 
100.750450 58.356785 80.229576 2.851511 3.902291 -7.454256 0.892109 -0.010694 -2.878362 0.458374 0.026187 -1.246982 0.458375 0.026186 -1.246982 0.343836 0.018703 -0.935257 0.403242 -20.419771 -5.934919 -1.041060 -1.900441 -10.678833 9.001767 -3.060089 -0.315237 76.914330 2.575990 7.176233 15.882372 0.095496 16.738760 -34.354192 37.348670 46.802099 -12.021685 -0.930963 2.144900 -71.383222 18.944319 4.327798 7.112126 17.605993 5.972120 14.916056 6.638033 -19.718657 0.444726 27.892237 19.982022 -1.380845 -45.086349 2.323660 7.720139 -4.853663 -3.213143 2.969045 15.061083 0.774778 -19.222439 -5.167916 -5.876471 -3.014999 -6.714563 8.041285 8.486774 3.381087 0.877076 0.611418 0.275296 0.042662 
100.842628 59.324574 80.239029 2.497115 3.798825 -5.920432 0.948374 0.114247 -3.184405 0.496212 0.069671 -1.380185 0.496213 0.069672 -1.380186 0.372319 0.051134 -1.035196 0.586247 -20.597335 -5.953606 -0.700884 -2.215233 -10.651103 9.069693 -3.082855 -0.166908 76.232370 3.429185 4.882395 13.882588 4.166961 13.456819 -30.791097 35.675045 43.662520 -12.328452 -1.182738 1.707465 -72.156447 17.815812 1.988986 5.655386 17.370906 4.388648 14.603692 6.056905 -19.872340 1.545545 28.062157 21.322580 -1.215946 -40.855845 2.993832 7.251932 -4.697973 -3.535860 2.655619 10.162438 0.468829 -18.863587 -6.132093 -6.682308 -2.785984 -6.801958 7.855996 8.551091 3.912276 0.589860 0.395993 0.303651 0.012667 
100.962425 60.334782 80.248825 2.024465 3.761032 -4.371506 1.098228 0.188447 -3.458073 0.550981 0.088908 -1.508903 0.550980 0.088908 -1.508902 0.413459 0.065321 -1.131759 0.816827 -20.728468 -6.011442 -0.289727 -2.442571 -10.682978 9.139710 -3.165602 -0.078588 75.483562 4.513116 2.841419 10.954084 7.679488 9.923447 -26.344885 32.984558 39.980140 -12.648874 -1.558975 1.155007 -72.928512 16.815842 -0.321733 3.949939 16.863437 2.382885 14.136523 5.348381 -19.642325 2.422783 27.973844 22.096816 -0.877866 -36.355181 2.313013 6.975066 -5.092197 -2.588627 1.909777 4.405387 0.193267 -18.393201 -7.203579 -7.202296 -2.431988 -6.875231 7.584601 8.678247 4.479488 0.135705 0.116739 0.330603 -0.004993 
101.124100 61.392605 80.269287 1.500286 3.719834 -2.814678 1.303624 0.251331 -3.726106 0.627622 0.105065 -1.633897 0.627623 0.105065 -1.633895 0.471002 0.077122 -1.225530 1.077327 -20.817495 -6.089946 0.166311 -2.590829 -10.745617 9.202505 -3.391726 -0.004046 74.640772 6.063421 1.221884 7.157150 9.864642 5.984568 -21.851645 29.842500 35.644804 -12.830931 -2.265709 0.619658 -73.971085 15.754204 -2.823104 2.201094 16.144863 0.036954 13.317332 4.356748 -19.148425 3.035274 27.670428 22.129560 -0.498905 -31.544351 0.832749 6.756117 -5.975502 -0.666798 1.227466 0.489646 0.047887 -17.786578 -8.351038 -7.352364 -2.028117 -6.822263 7.061055 8.758177 5.010078 -0.438135 -0.106953 0.374238 -0.010786 
101.350853 62.490318 80.312180 0.956761 3.695419 -1.228220 1.526801 0.307687 -4.011568 0.718077 0.121941 -1.763095 0.718078 0.121941 -1.763094 0.538916 0.089385 -1.322465 1.372819 -20.881181 -6.180585 0.680235 -2.690241 -10.821216 9.317683 -3.205757 -0.054852 73.400758 7.851372 -0.576004 3.133001 10.486225 1.810801 -18.148675 26.578790 30.830371 -12.911603 -2.818239 0.173043 -75.127614 14.396388 -5.022492 0.591593 15.278863 -2.544600 12.196170 3.036901 -18.636642 3.385067 27.196912 21.518318 0.063966 -26.660001 -0.636674 6.559956 -7.057558 1.348099 0.543890 -2.188338 -0.026572 -17.000447 -9.504942 -7.224020 -1.687457 -6.777595 6.452483 8.725312 5.562454 -1.216258 -0.232527 0.451183 -0.003077 
101.649498 63.616272 80.389336 0.434356 3.729381 0.424727 1.696511 0.320633 -4.331643 0.809977 0.128594 -1.895765 0.809977 0.128594 -1.895765 0.607888 0.093934 -1.421996 1.739994 -20.910573 -6.294679 1.314679 -2.721983 -10.919512 9.479705 -2.654815 -0.214941 71.579221 9.845668 -2.655989 -0.593738 9.255169 -2.228486 -15.187446 23.561912 26.070745 -13.033963 -2.753132 -0.278185 -76.006195 12.698511 -6.453714 -0.855456 14.274620 -5.230937 10.940178 1.642557 -18.268398 3.588416 26.522700 20.498275 0.586960 -22.033635 -1.115551 7.138764 -7.851490 2.466626 -0.503183 -4.131150 -0.047996 -16.066301 -10.653109 -7.038177 -1.421394 -6.804108 6.077616 8.501225 6.107989 -2.325583 1.452683 1.468883 0.063924 
